PathFileType	4	(X/Y/Z)	/Users/visionmauri/1_8_1_f_Sports2D/1_8_1_f_Sports2D_m_person00.trc
DataRate	CameraRate	NumFrames	NumMarkers	Units	OrigDataRate	OrigDataStartFrame	OrigNumFrames
30.0	30.0	9	22	m	30.0	44	358
Frame#	Time	Hip			RHip			RKnee			RAnkle			RBigToe			RSmallToe			RHeel			LHip			LKnee			LAnkle			LBigToe			LSmallToe			LHeel			Neck			Head			Nose			RShoulder			RElbow			RWrist			LShoulder			LElbow			LWrist			
		X1	Y1	Z1	X2	Y2	Z2	X3	Y3	Z3	X4	Y4	Z4	X5	Y5	Z5	X6	Y6	Z6	X7	Y7	Z7	X8	Y8	Z8	X9	Y9	Z9	X10	Y10	Z10	X11	Y11	Z11	X12	Y12	Z12	X13	Y13	Z13	X14	Y14	Z14	X15	Y15	Z15	X16	Y16	Z16	X17	Y17	Z17	X18	Y18	Z18	X19	Y19	Z19	X20	Y20	Z20	X21	Y21	Z21	X22	Y22	Z22
44	1.4707749766573295	0.9157576872730325	0.910357240605362	0.0301	1.0302940999579342	0.8890059120679614	0.0301	1.0123579340001767	0.3774423934524893	0.129	0.9692230557503968	-0.11478612194856468	0.023	0.9358199352299705	-0.16986669049444347	0.2179	1.015946611326164	-0.19652797275776274	0.1804	0.964124467378649	-0.1992121387829618	-0.0119	0.7901940729774493	0.8935058831040781	0.0301	0.7981206353989746	0.5189637962672852	0.129	0.7759831423473057	0.27912139643199463	0.023	0.7899807743798672	-0.20198971718808265	0.2179	0.7320755767053088	-0.19777029006977692	0.1804	0.768067571921345	0.22255597292868007	-0.0119	0.9215765317730427	1.5515269579400757	0.0008	0.9150475905561241	1.7233000351980694	0.0655	0.9300340979404196	1.6083615964745674	0.1076	1.128048976455826	1.5044873455138235	-0.01275	1.2750151722099412	1.1907871792460798	0.0702	1.3065645459081086	0.9271906531416314	0.1076	0.7123777594874069	1.5279935404022145	-0.01275	0.6137914944357225	1.1794968544873805	0.0702	0.6214120161533562	1.1866345445534452	0.1076
45	1.504201680672269	0.9160364594266046	0.9091354122863733	0.0301	1.0300924716932596	0.8868170389590522	0.0301	1.0115406794575574	0.3790215639142334	0.129	0.9680136619139891	-0.11486880457740313	0.023	0.9394050753435693	-0.1707744339286627	0.2179	1.017115720118493	-0.1978000086077151	0.1804	0.9623694138059387	-0.20068255838092947	-0.0119	0.7900508584037528	0.8917660523781588	0.0301	0.7983243163272703	0.520767380373804	0.129	0.7667258645255369	0.28034183277862246	0.023	0.7833551587451464	-0.18904334762216324	0.2179	0.7237446203202026	-0.18440910952034498	0.1804	0.7701170686729116	0.2227004791658132	-0.0119	0.9241525959215062	1.5511880653121375	0.0008	0.9171835427343165	1.721517553355954	0.0655	0.9307631901644359	1.6081121661421156	0.1076	1.1284560668650723	1.501216321783166	-0.01275	1.272756715324554	1.1831263118892386	0.0702	1.2973413260452715	0.9285786859263641	0.1076	0.7174341148770061	1.529644159911885	-0.01275	0.6136226498468551	1.1775037729460223	0.0702	0.6235782330064887	1.1886384644642285	0.1076
46	1.537628384687208	0.9161633232712779	0.9070182543027344	0.0301	1.0298998751389759	0.8829076982750679	0.0301	1.0108732610188367	0.3774916823094553	0.129	0.9673697975413789	-0.11619439100809795	0.023	0.941370320350905	-0.17090788213629743	0.2179	1.0149513254270792	-0.1997106127163679	0.1804	0.9610304936422698	-0.20065277118812802	-0.0119	0.7900021189207166	0.8888414213040843	0.0301	0.7977076904872187	0.5256368186000142	0.129	0.7748663948012142	0.1671647184468711	0.023	0.782766345883639	-0.1536366258867578	0.2179	0.7262347870630891	-0.14179759873737896	0.1804	0.7821011705654611	0.0903897328675496	-0.0119	0.9260466886897621	1.551481392905189	0.0008	0.9190272591506655	1.721428047639049	0.0655	0.9303200187758376	1.6079295948970402	0.1076	1.1283390595663216	1.4973314164971885	-0.01275	1.267956695589683	1.178258206303152	0.0702	1.2883460050285183	0.9311062050100105	0.1076	0.7220706901886743	1.5320775026929248	-0.01275	0.6138284011945482	1.1789101710290775	0.0702	0.6277316606412084	1.1883074277878858	0.1076
47	1.5710550887021475	0.915579021304588	0.9048127441354369	0.0301	1.0297850979096312	0.8781959487527454	0.0301	1.011147548460183	0.3751876345308549	0.129	0.9680414499453375	-0.11971658226419031	0.023	0.9396577135427046	-0.17254349651695383	0.2179	1.0129952050517066	-0.2042614352123043	0.1804	0.9596647731365219	-0.20320029595527314	-0.0119	0.7898464288299766	0.8847893798466229	0.0301	0.7966021369762973	0.5299047148905518	0.129	0.7871001117543565	0.07206102549510741	0.023	0.7831992152099734	-0.11426808927066524	0.2179	0.7273858673105353	-0.09296124835704839	0.1804	0.7943584825656144	-0.019544949764648923	-0.0119	0.9264286204078517	1.5506469899401079	0.0008	0.9187279650495844	1.7224536415440357	0.0655	0.929382492069896	1.607092416783938	0.1076	1.1291148488816414	1.4927141628749732	-0.01275	1.2630591192674978	1.1716498572206093	0.0702	1.2801515956582261	0.9339808288144418	0.1076	0.7237485349612711	1.5318497511229443	-0.01275	0.6149235307301242	1.1815145227555806	0.0702	0.6290278482827217	1.1905474811562597	0.1076
48	1.604481792717087	0.913276445371466	0.903321299209508	0.0301	1.0290098214179728	0.8735952411691785	0.0301	1.0121451785115876	0.372656630150189	0.129	0.9686294824879927	-0.12441133077230666	0.023	0.936014678391794	-0.1758679673189009	0.2179	1.0127354281604564	-0.21021927868530935	0.1804	0.9580040031689001	-0.2067750021240761	-0.0119	0.7892600189463543	0.8807497236688937	0.0301	0.7956937203520055	0.5289331981826008	0.129	0.7903451775487327	0.052167229510616774	0.023	0.7824343505915542	-0.09184266855468765	0.2179	0.7234504823692434	-0.0657457834024561	0.1804	0.7977818469256865	-0.04063211037128535	-0.0119	0.926705489574857	1.5497386603098464	0.0008	0.915799687179542	1.7229744379265173	0.0655	0.9283433038302773	1.6043654379709151	0.1076	1.1317492725709632	1.4882103004934752	-0.01275	1.2614369050485474	1.160852353649911	0.0702	1.2740984045547776	0.9357359581296886	0.1076	0.7239138408569715	1.530552717113434	-0.01275	0.6168224169640447	1.1835201274292053	0.0702	0.6277017243044106	1.1972943422153095	0.1076
49	1.637908496732026	0.9104182739235668	0.9015580083924973	0.0301	1.0271132122963256	0.8703277441563387	0.0301	1.0126947167287004	0.3711643879503374	0.129	0.9680754743950911	-0.12808821890803598	0.023	0.9333161446988771	-0.17848085825832363	0.2179	1.0127283097414965	-0.21444408876732837	0.1804	0.9571195788391093	-0.2077978040816406	-0.0119	0.7884594838408835	0.8785037881654659	0.0301	0.7953961282031148	0.5255795528670082	0.129	0.7857617013653396	0.06900966568038194	0.023	0.7804240954103961	-0.08580413713122281	0.2179	0.7210420455875074	-0.06277191373084766	0.1804	0.7939448312877817	-0.018987594425435118	-0.0119	0.9277459611221334	1.5496990976109357	0.0008	0.9116714924985194	1.7217539694383965	0.0655	0.925786775613405	1.6004786490982263	0.1076	1.1343482662570508	1.4849156864065698	-0.01275	1.2627703632081453	1.149124490846101	0.0702	1.2698944514736223	0.9353243039001962	0.1076	0.724682914884164	1.5306797428739676	-0.01275	0.6192789370359619	1.1862773644816123	0.0702	0.6270342683142816	1.2045558792216209	0.1076
50	1.6713352007469655	0.9091719995711838	0.8986274010541999	0.0301	1.0251485047668836	0.8685602435203817	0.0301	1.0119303295077313	0.37178359672059624	0.129	0.9674342010411685	-0.1291178432747943	0.023	0.9327392431142111	-0.17832982986699614	0.2179	1.0123737205143342	-0.21603307814610628	0.1804	0.9577619366221235	-0.2069144397842827	-0.0119	0.7882939983433809	0.8781917417384395	0.0301	0.7959928131869696	0.5238746241565797	0.129	0.7823092512294653	0.09472393650319876	0.023	0.7777899851579932	-0.08106219971486779	0.2179	0.7221624725127292	-0.06797012251908183	0.1804	0.7916127609738974	0.009552778152062296	-0.0119	0.9268279964652828	1.5491343325642366	0.0008	0.9079000808498179	1.7185481421890263	0.0655	0.9219204908543246	1.597910796547587	0.1076	1.1336335260512496	1.482973772028598	-0.01275	1.263252476743306	1.1414539938054846	0.0702	1.265951369418859	0.9329910772281989	0.1076	0.7245103612921796	1.5298362666251961	-0.01275	0.6219430866011523	1.1904713890628071	0.0702	0.6261891943707936	1.2068517701288608	0.1076
51	1.7047619047619047	0.9095924307936553	0.8956681905423456	0.0301	1.024414370744306	0.8674410127057837	0.0301	1.010034522649027	0.372423994798052	0.129	0.9678268214150421	-0.128813089393216	0.023	0.9330684720099731	-0.17504592095258467	0.2179	1.0131173472752049	-0.21595525305005978	0.1804	0.9592228996307034	-0.20655450910421513	-0.0119	0.7889170816460996	0.8783078796120675	0.0301	0.7972526586839781	0.5220722855683175	0.129	0.7837231495115661	0.12524218903397225	0.023	0.7771525749555644	-0.07087645905038241	0.2179	0.722668518404275	-0.06726049378908969	0.1804	0.7946794583630438	0.03911586747435048	-0.0119	0.9224717794920152	1.5466811872720605	0.0008	0.9045542245402634	1.7141293080567281	0.0655	0.9193683742564873	1.597284851731217	0.1076	1.129248761421658	1.4815762590556123	-0.01275	1.2606647963509399	1.1389977007865126	0.0702	1.2628849330017593	0.9300570579328892	0.1076	0.7207488254301312	1.5251361178058453	-0.01275	0.6237085935080648	1.1922838733952354	0.0702	0.6247799075073001	1.2020276448383607	0.1076
52	1.7381886087768441	0.9104025651478058	0.8940995283613491	0.0301	1.0249220017082767	0.8663153516666113	0.0301	1.008012966848946	0.37092197018223544	0.129	0.9686854558680948	-0.1298003697447946	0.023	0.9328485268655407	-0.17041713101590256	0.2179	1.0146076665508286	-0.21483906598354194	0.1804	0.9602748119819279	-0.2070682283603056	-0.0119	0.789543272415465	0.877005169746879	0.0301	0.7981898127297993	0.5187922084377056	0.129	0.7876476618416419	0.14690965636509648	0.023	0.7818651027981482	-0.059063288529986546	0.2179	0.723210926312621	-0.05518093531968307	0.1804	0.7992072383623854	0.0627758618322386	-0.0119	0.9177064121314593	1.5446433667501691	0.0008	0.9014381481723445	1.7101989693047677	0.0655	0.9180921240936425	1.597008437550307	0.1076	1.1238567350878343	1.4796559432248428	-0.01275	1.2562789136983414	1.13935202829937	0.0702	1.2620242277843616	0.9296991701538407	0.1076	0.7154149126633458	1.5189183130952972	-0.01275	0.623535345447129	1.1867754410070863	0.0702	0.6252390555792948	1.1922460780095485	0.1076
